<?xml version="1.0" encoding="UTF-8"?>
<svg width="22px" height="22px" viewBox="0 0 22 22" version="1.1" xmlns="http://www.w3.org/2000/svg" xmlns:xlink="http://www.w3.org/1999/xlink">
    <title>ic_zoom_in_map</title>
    <defs>
        <path d="M18.4755556,8.85777778 L16.4311111,6.81333333 L19,4.26222222 L17.7377778,3 L15.1866667,5.56888889 L13.1422222,3.52444444 L13.1422222,8.85777778 L18.4755556,8.85777778 Z M8.85777778,3.52444444 L6.81333333,5.56888889 L4.26222222,3 L3,4.26222222 L5.56888889,6.81333333 L3.52444444,8.85777778 L8.85777778,8.85777778 L8.85777778,3.52444444 Z M3.52444444,13.1422222 L5.56888889,15.1866667 L3,17.7377778 L4.26222222,19 L6.81333333,16.4311111 L8.85777778,18.4755556 L8.85777778,13.1422222 L3.52444444,13.1422222 Z M13.1422222,18.4755556 L15.1866667,16.4311111 L17.7377778,19 L19,17.7377778 L16.4311111,15.1866667 L18.4755556,13.1422222 L13.1422222,13.1422222 L13.1422222,18.4755556 Z" id="path-1"></path>
    </defs>
    <g id="切图-地图" stroke="none" stroke-width="1" fill="none" fill-rule="evenodd">
        <g id="ic_zoom_in_map">
            <mask id="mask-2" fill="white">
                <use xlink:href="#path-1"></use>
            </mask>
            <use id="蒙版" fill="#515661" xlink:href="#path-1"></use>
        </g>
    </g>
</svg>