<?xml version="1.0" encoding="UTF-8"?>
<svg width="22px" height="22px" viewBox="0 0 22 22" version="1.1" xmlns="http://www.w3.org/2000/svg" xmlns:xlink="http://www.w3.org/1999/xlink">
    <title>map_max</title>
    <defs>
        <path d="M13.6666667,3 L15.7111111,5.04444444 L13.1422222,7.59555556 L14.4044444,8.85777778 L16.9555556,6.28888889 L19,8.33333333 L19,3 L13.6666667,3 Z M3,8.33333333 L5.04444444,6.28888889 L7.59555556,8.85777778 L8.85777778,7.59555556 L6.28888889,5.04444444 L8.33333333,3 L3,3 L3,8.33333333 Z M8.33333333,19 L6.28888889,16.9555556 L8.85777778,14.4044444 L7.59555556,13.1422222 L5.04444444,15.7111111 L3,13.6666667 L3,19 L8.33333333,19 Z M19,13.6666667 L16.9555556,15.7111111 L14.4044444,13.1422222 L13.1422222,14.4044444 L15.7111111,16.9555556 L13.6666667,19 L19,19 L19,13.6666667 Z" id="path-1"></path>
    </defs>
    <g id="切图-地图" stroke="none" stroke-width="1" fill="none" fill-rule="evenodd">
        <g id="map_max">
            <mask id="mask-2" fill="white">
                <use xlink:href="#path-1"></use>
            </mask>
            <use id="Mask" fill="#515661" xlink:href="#path-1"></use>
        </g>
    </g>
</svg>