<?xml version="1.0" encoding="UTF-8"?>
<svg width="22px" height="22px" viewBox="0 0 22 22" version="1.1" xmlns="http://www.w3.org/2000/svg" xmlns:xlink="http://www.w3.org/1999/xlink">
    <title>map_i</title>
    <defs>
        <path d="M12.9225875,4 C13.8600212,4 14.3280311,4.63909509 14.3280311,5.37009544 C14.3280311,6.2834924 13.514316,7.12760693 12.4538706,7.12760693 C11.5659244,7.12760693 11.04772,6.60233298 11.0724638,5.73488865 C11.0724638,5.00459526 11.688936,4 12.9225875,4 L12.9225875,4 Z M10.0360551,18 C9.29586426,18 8.75291622,17.5433015 9.27112054,15.534111 L10.1208908,11.9703075 C10.2686462,11.3990809 10.2933899,11.1714387 10.1208908,11.1714387 C9.89890421,11.1714387 8.93743372,11.5659244 8.36974196,11.9540474 L8,11.3375751 C9.80063627,9.8077059 11.8727466,8.91056911 12.7599859,8.91056911 C13.4994698,8.91056911 13.6231884,9.80134323 13.2534464,11.1714387 L12.2806645,14.9176387 C12.1074585,15.5793567 12.1816896,15.8077059 12.3541888,15.8077059 C12.5761753,15.8077059 13.3043478,15.5326971 14.019795,14.9621774 L14.4390244,15.533404 C12.6885825,17.3135384 10.776246,18 10.0360551,18 L10.0360551,18 Z" id="path-1"></path>
    </defs>
    <g id="切图-地图" stroke="none" stroke-width="1" fill="none" fill-rule="evenodd">
        <g id="map_i">
            <mask id="mask-2" fill="white">
                <use xlink:href="#path-1"></use>
            </mask>
            <use id="Shape" fill="#515661" xlink:href="#path-1"></use>
        </g>
    </g>
</svg>