<?xml version="1.0" encoding="UTF-8"?>
<svg width="22px" height="22px" viewBox="0 0 22 22" version="1.1" xmlns="http://www.w3.org/2000/svg" xmlns:xlink="http://www.w3.org/1999/xlink">
    <title>map_compass</title>
    <g id="切图-地图" stroke="none" stroke-width="1" fill="none" fill-rule="evenodd">
        <g id="map_compass" fill="#515661">
            <path d="M11,10.12 C10.512,10.12 10.12,10.512 10.12,11 C10.12,11.488 10.512,11.88 11,11.88 C11.488,11.88 11.88,11.488 11.88,11 C11.88,10.512 11.488,10.12 11,10.12 L11,10.12 Z M11,3 C6.584,3 3,6.584 3,11 C3,15.416 6.584,19 11,19 C15.416,19 19,15.416 19,11 C19,6.584 15.416,3 11,3 L11,3 Z M12.752,12.752 L6.2,15.8 L9.248,9.248 L15.8,6.2 L12.752,12.752 L12.752,12.752 Z" id="Mask"></path>
        </g>
    </g>
</svg>