<?xml version="1.0" encoding="UTF-8"?>
<svg width="40px" height="42px" viewBox="0 0 40 42" version="1.1" xmlns="http://www.w3.org/2000/svg" xmlns:xlink="http://www.w3.org/1999/xlink">
    <title>ic_bz</title>
    <defs>
        <filter x="-33.3%" y="-150.0%" width="166.7%" height="400.0%" filterUnits="objectBoundingBox" id="filter-1">
            <feGaussianBlur stdDeviation="2" in="SourceGraphic"></feGaussianBlur>
        </filter>
        <path d="M20,3 C26.0751322,3 31,7.92486775 31,14 C31,18.9932093 27.6730778,23.2093744 23.1150024,24.552726 L20,29 L16.885998,24.5530208 C12.327409,23.2099912 9,18.9935746 9,14 C9,7.92486775 13.9248678,3 20,3 Z" id="path-2"></path>
        <rect id="path-4" x="0" y="0" width="50" height="50"></rect>
    </defs>
    <g id="页面-1" stroke="none" stroke-width="1" fill="none" fill-rule="evenodd">
        <g id="ic_map_location">
            <ellipse id="椭圆形" fill="#327CFA" opacity="0.7" filter="url(#filter-1)" cx="20" cy="34" rx="9" ry="2"></ellipse>
            <mask id="mask-3" fill="white">
                <use xlink:href="#path-2"></use>
            </mask>
            <path stroke="#FFFFFF" stroke-width="2" d="M20,2 C23.3137085,2 26.3137085,3.34314575 28.4852814,5.51471863 C30.6568542,7.6862915 32,10.6862915 32,14 C32,16.6908629 31.1141193,19.1747486 29.6185418,21.1763243 C28.156011,23.1336726 26.1097895,24.6291773 23.7382428,25.4060046 L23.7382428,25.4060046 L19.9998956,30.743225 L16.2627226,25.4063208 C13.8909506,24.6296436 11.8445064,23.1341713 10.3818001,21.1767818 C8.88601566,19.1751272 8,16.6910679 8,14 C8,10.6862915 9.34314575,7.6862915 11.5147186,5.51471863 C13.6862915,3.34314575 16.6862915,2 20,2 Z"></path>
            <g id="Colors/主题色" mask="url(#mask-3)">
                <g transform="translate(-5.000000, -5.000000)">
                    <mask id="mask-5" fill="white">
                        <use xlink:href="#path-4"></use>
                    </mask>
                    <use id="Black" stroke="none" fill="#327CFA" fill-rule="evenodd" xlink:href="#path-4"></use>
                    <g id="baozhuangweixiu" stroke="none" stroke-width="1" fill="none" fill-rule="evenodd" mask="url(#mask-5)">
                        <g transform="translate(18.000000, 12.000000)" fill="#FFFFFF" fill-rule="nonzero" id="形状">
                            <path d="M8.25014152,10.0527178 L10.4637766,12.2595944 L11.6402304,13.830935 L12.2641805,13.999655 L13.999655,12.2595944 L13.8316591,11.6223688 L12.2661115,10.4613629 L9.9320311,8.13379956 L8.27983044,9.78117276 C8.27752057,9.87234501 8.26767112,9.96316984 8.25038289,10.0527178 L8.25014152,10.0527178 Z M12.0976329,11.3469608 C12.3597303,11.3465288 12.6021986,11.4857917 12.7338931,11.712401 C12.8652002,11.9385679 12.8654416,12.2175955 12.7346172,12.4442451 C12.6034264,12.6710768 12.3613599,12.810872 12.0993225,12.8111351 C11.9048411,12.8116454 11.7181215,12.7348794 11.5802403,12.5977224 C11.442359,12.4605654 11.3646107,12.2742527 11.3640993,12.0797713 C11.3641633,11.8853541 11.4414566,11.6989252 11.5789756,11.5614967 C11.7164945,11.4240683 11.9029743,11.3468977 12.0973915,11.3469608 L12.0976329,11.3469608 Z M7.2998546,5.509347 L5.64644707,7.15720294 C5.55558994,7.1601472 5.46511118,7.17031698 5.37586753,7.18761598 L4.19700002,6.01261044 C3.87959405,6.17215824 3.55711924,6.26725935 3.25540253,6.26725935 C1.59209869,6.26725935 0.0202753636,4.68071224 -1.90070182e-13,3.02151175 C-1.90070182e-13,3.01523604 0.187788471,2.83034405 0.29326864,2.72582938 C1.65630402,4.08403729 1.38837958,3.94573036 2.22811751,3.94573036 C2.87741185,3.94573036 3.94017877,2.90058369 3.94017877,2.23873794 C3.94017877,1.4236201 4.05072778,1.63940788 2.71689856,0.309199278 C2.81924086,0.207581085 3.0075121,0.0168961386 3.0137878,0.0168961386 C4.67781575,-0.00289647465 6.26919033,1.60271913 6.26919033,3.26336786 C6.26991446,3.56339495 6.17022725,3.89117998 6.0031969,4.21679263 L7.30009596,5.50982973 L7.30009596,5.509347 L7.2998546,5.509347 Z M12.6069307,8.33800142 C12.6069307,8.33800142 12.8652002,6.19581283 11.5439224,5.43910734 C11.5283811,5.430674 11.5109122,5.42643155 11.493234,5.4267973 C11.3633751,5.4267973 11.1374497,5.60275849 10.910076,5.79223657 L7.25906249,9.43142275 C7.35078437,9.72155353 7.3278539,10.0027535 7.12075555,10.2091277 L3.63846207,13.6815249 L3.53418877,13.7848327 C3.40898462,13.9104524 3.23767925,13.9791316 3.06037286,13.9747935 C2.17839459,13.9747935 0.969355423,12.5485184 1.63144256,11.8890863 L5.11373605,8.41668914 C5.157666,8.37324194 5.19387201,8.33800142 5.21800934,8.3128986 C5.35076469,8.18110874 5.51417446,8.12366187 5.69013564,8.12366187 C5.78909872,8.12366187 5.89313064,8.14176487 5.99740393,8.17435028 L9.25522019,4.92739582 C9.40366481,4.70533232 9.77417292,4.3068249 9.51180008,3.72825295 C9.27332319,3.29088441 8.75461184,3.1441294 8.50358354,3.09730298 L8.49103213,3.09730298 C8.16517809,3.09730298 7.84270327,2.74417375 7.56295156,2.46538752 L7.46929869,2.37270015 C7.08527367,1.98964062 6.97931077,1.94595205 7.42536874,1.50182506 L8.6399595,0.290130776 C8.8429545,0.0876185292 8.96267568,-1.95399252e-14 9.06863858,-1.95399252e-14 C9.19608371,-1.95399252e-14 9.30446036,0.125996894 9.51348969,0.334543479 L9.60665981,0.427230846 C9.85817085,0.678259146 10.1690597,0.963079709 10.2296445,1.25441736 C10.2518508,1.33141547 10.3544345,1.64785594 10.6334621,2.01667444 C10.7333907,2.14894704 11.1203122,2.02463976 11.257895,2.16246396 L13.2547768,4.15258732 C14.7730153,5.66599829 13.4937364,9.19922158 13.4937364,9.19922158 L12.6066893,8.33751867 L12.6066893,8.33800142 L12.6069307,8.33800142 Z"></path>
                        </g>
                    </g>
                </g>
            </g>
        </g>
    </g>
</svg>