<?xml version="1.0" encoding="UTF-8"?>
<svg width="36px" height="50px" viewBox="0 0 36 50" version="1.1" xmlns="http://www.w3.org/2000/svg" xmlns:xlink="http://www.w3.org/1999/xlink">
    <title>ic_cbry</title>
    <defs>
        <filter x="-36.0%" y="-240.0%" width="172.0%" height="580.0%" filterUnits="objectBoundingBox" id="filter-1">
            <feGaussianBlur stdDeviation="2.4" in="SourceGraphic"></feGaussianBlur>
        </filter>
        <path d="M8.26594947,0.592337948 L12,6.19201425 L15.7350496,0.592664806 C20.5336994,2.16287782 24,6.67663997 24,12 L0,12 L0,12 C0,6.67627055 3.46678168,2.16225134 8.26594947,0.592337948 Z" id="path-2"></path>
    </defs>
    <g id="页面-1" stroke="none" stroke-width="1" fill="none" fill-rule="evenodd">
        <g id="编组-3" transform="translate(6.000000, 2.000000)">
            <ellipse id="椭圆形" fill="#F6A350" opacity="0.75" filter="url(#filter-1)" cx="12" cy="38.5" rx="10" ry="1.5"></ellipse>
            <path d="M15.2491333,-1 L15.2503419,0.393884582 C16.6546511,0.975494457 17.8693776,1.9224669 18.7754111,3.11669643 C19.6473957,4.26604665 20.2337954,5.6440009 20.4287475,7.14485419 L20.4287475,7.14485419 L22,7.39846384 L22,11.5 L21.06,11.5 L21.1170409,11.6338321 C21.181492,11.8069006 21.2240559,11.9906251 21.2413097,12.1816567 L21.25,12.375 L21.25,13.125 C21.25,13.7118025 21.0121513,14.2430525 20.6276019,14.6276019 C20.4415236,14.8136802 20.2210958,14.9654091 19.9767196,15.0728469 C19.5619304,16.7927947 18.6894261,18.3176088 17.4711575,19.4206175 L17.238,19.622 L17.5642232,19.77544 C19.4699159,20.7061593 21.0954841,22.0378405 22.3360626,23.6507746 L22.5641339,23.9564665 C24.292848,26.3458636 25.2003646,29.3117587 24.9626122,32.5 L24.9626122,32.5 L-0.962533974,32.5 C-1.20373044,29.2748693 -0.266986007,26.2754527 1.46145818,23.8867308 C2.74791669,22.1088362 4.47342641,20.6696501 6.47873852,19.7276081 L6.692,19.63 L6.56908267,19.5178463 C5.41945383,18.4240028 4.61450504,17.0106878 4.3470003,15.4185349 L4.30318839,15.1179449 C4.00869319,15.0282685 3.76264941,14.8987789 3.56151072,14.7479249 C3.02150956,14.342924 2.75,13.7656599 2.75,13.125 L2.75,13.125 L2.75,12.375 C2.75,12.1140829 2.7970995,11.8641894 2.88316565,11.6332766 L2.939,11.5 L2,11.5 L2,7.25 L3.55822122,7.25 C3.73334017,5.75616367 4.29589502,4.38078344 5.14240823,3.22684965 C6.05665275,1.98058719 7.30265081,0.993105303 8.75001823,0.393736484 L8.75001823,0.393736484 L8.7499537,-1 L15.2491333,-1 Z" id="形状结合" stroke="#FFFFFF" stroke-width="2"></path>
            <rect id="矩形" fill="#F4BDB0" x="8.25" y="18.75" width="7.5" height="7.5"></rect>
            <g id="编组-2" transform="translate(0.000000, 19.500000)">
                <mask id="mask-3" fill="white">
                    <use xlink:href="#path-2"></use>
                </mask>
                <use id="形状结合" fill="#4F5853" xlink:href="#path-2"></use>
                <path d="M16.5,0.75 L19.5,0.75 L19.5,9 L19.5,9 L19.5,12 L4.5,12 L4.5,0.75 L7.5,0.75 L7.5,9 L16.5,9 L16.5,0.75 Z" id="形状结合" fill="#F6A350" mask="url(#mask-3)"></path>
                <rect id="矩形" fill="#DE862E" mask="url(#mask-3)" x="4.5" y="6.75" width="3" height="2.25"></rect>
                <rect id="矩形" fill="#DE862E" mask="url(#mask-3)" x="16.5" y="6.75" width="3" height="2.25"></rect>
                <g id="bi" mask="url(#mask-3)" fill="#CC741B" fill-rule="nonzero" stroke="#FFD4A9">
                    <g transform="translate(10.000000, 1.500000)" id="形状">
                        <path d="M10.2397196,2.48900999 C10.2670194,2.55042216 10.2891912,2.62211512 10.3062473,2.7040517 C10.3233035,2.78600066 10.331813,2.87139306 10.331813,2.96006789 C10.331813,3.04880464 10.3148064,3.13765288 10.280694,3.22664975 C10.2465817,3.31558469 10.1919449,3.40092754 10.1167713,3.48266594 C10.0348348,3.56459013 9.96139531,3.63628308 9.89647776,3.69770765 C9.83159736,3.75913221 9.77515217,3.81374421 9.72735273,3.86163035 C9.67266642,3.91625473 9.62144831,3.96414087 9.57357456,4.00520206 L7.65773266,2.08937254 C7.73966924,2.0141866 7.8370146,1.92370335 7.9498059,1.81794757 C8.06256004,1.71214224 8.15644957,1.62844678 8.23140018,1.56683642 C8.32713529,1.49163809 8.42614044,1.43872304 8.52842801,1.40816559 C8.63071557,1.37753382 8.73145483,1.36388392 8.83065816,1.36719111 C8.92989865,1.37044875 9.02549752,1.38584515 9.11754147,1.41339269 C9.20952348,1.44090306 9.28977549,1.47163392 9.35816126,1.50548618 C9.50151001,1.58067212 9.66029232,1.71212985 9.83453296,1.89987176 C10.0087117,2.08760127 10.1435261,2.28400133 10.2390755,2.4889976 L10.2397196,2.4889976 L10.2397196,2.48900999 Z M2.25899789,7.48840458 C2.30007147,7.4473434 2.39570749,7.34999804 2.54583165,7.19631896 C2.69600535,7.04270181 2.88383396,6.85321341 3.1093918,6.62785377 L6.88962216,2.84767295 L8.80545167,4.773647 L6.60273885,6.9763722 L5.78316252,7.80609307 C5.50999105,8.07252629 5.26413177,8.31662668 5.0455723,8.53849335 C4.82697567,8.76029807 4.64603395,8.94303584 4.50267281,9.08658278 C4.35931167,9.23020403 4.27396881,9.31214061 4.24661946,9.33245444 C4.17824608,9.393879 4.09965385,9.45880894 4.01090471,9.5271947 C3.9222175,9.59561763 3.82996298,9.65024201 3.73422787,9.69110502 C3.63848036,9.73899115 3.49851312,9.79700944 3.31428898,9.86518463 C3.13005245,9.93337221 2.93705868,9.99990001 2.73532005,10.0648299 C2.53363097,10.1297599 2.34239607,10.1861555 2.16165253,10.2340169 C1.98087183,10.2818906 1.84606975,10.3125472 1.75706049,10.326098 C1.57262578,10.3466596 1.44966518,10.3193474 1.38829016,10.2441614 C1.32687798,10.1689755 1.3098218,10.0426829 1.33713399,9.86518463 C1.35088298,9.76944951 1.38334795,9.63112967 1.43451651,9.45015079 C1.48775185,9.26189628 1.54237772,9.07403777 1.59838966,8.88659064 C1.65658135,8.69189992 1.71293985,8.51256844 1.76757662,8.34864574 C1.822201,8.18472304 1.86656938,8.07206799 1.90066936,8.01064343 C1.94174294,7.91494547 1.98787019,7.82781896 2.0389892,7.74938775 C2.09014537,7.67095655 2.16358482,7.58381765 2.25928278,7.48811969 L2.25899789,7.48840458 L2.25899789,7.48840458 Z" transform="translate(5.828169, 5.849714) rotate(-7.000000) translate(-5.828169, -5.849714) "></path>
                    </g>
                </g>
            </g>
            <rect id="矩形" fill="#FFD9C7" x="5.25" y="3.75" width="13.5" height="16.5" rx="6"></rect>
            <rect id="矩形" fill="#4B5650" x="4.5" y="9.75" width="1.5" height="3"></rect>
            <rect id="矩形" fill="#4B5650" x="18" y="9.75" width="1.5" height="3"></rect>
            <rect id="矩形" fill="#FFD9C7" x="3.75" y="11.25" width="2.25" height="3" rx="1.125"></rect>
            <rect id="矩形" fill="#FFCFB9" x="18" y="11.25" width="2.25" height="3" rx="1.125"></rect>
            <g id="编组" transform="translate(3.000000, 0.000000)">
                <rect id="矩形" fill="#F6A350" x="0" y="8.25" width="18" height="2.25"></rect>
                <path d="M9,0.75 C13.1421356,0.75 16.5,4.10786438 16.5,8.25 L16.5,8.25 L16.5,8.25 L1.5,8.25 C1.5,4.10786438 4.85786438,0.75 9,0.75 Z" id="矩形" fill="#F6A350"></path>
                <rect id="矩形" fill="#DE862E" x="6.75" y="0" width="4.5" height="8.25"></rect>
            </g>
        </g>
    </g>
</svg>