<?xml version="1.0" encoding="UTF-8"?>
<svg width="36px" height="50px" viewBox="0 0 36 50" version="1.1" xmlns="http://www.w3.org/2000/svg" xmlns:xlink="http://www.w3.org/1999/xlink">
    <title>ic_gdry</title>
    <defs>
        <filter x="-36.0%" y="-240.0%" width="172.0%" height="580.0%" filterUnits="objectBoundingBox" id="filter-1">
            <feGaussianBlur stdDeviation="2.4" in="SourceGraphic"></feGaussianBlur>
        </filter>
        <path d="M8.26594947,0.592337948 L12,6.19201425 L15.7350496,0.592664806 C20.5336994,2.16287782 24,6.67663997 24,12 L0,12 L0,12 C0,6.67627055 3.46678168,2.16225134 8.26594947,0.592337948 Z" id="path-2"></path>
    </defs>
    <g id="页面-1" stroke="none" stroke-width="1" fill="none" fill-rule="evenodd">
        <g id="编组-3" transform="translate(6.000000, 2.000000)">
            <ellipse id="椭圆形" fill="#5DC7DA" opacity="0.75" filter="url(#filter-1)" cx="12" cy="38.5" rx="10" ry="1.5"></ellipse>
            <path d="M15.2491333,-1 L15.2503419,0.393884582 C16.6546511,0.975494457 17.8693776,1.9224669 18.7754111,3.11669643 C19.6473957,4.26604665 20.2337954,5.6440009 20.4287475,7.14485419 L20.4287475,7.14485419 L22,7.39846384 L22,11.5 L21.06,11.5 L21.1170409,11.6338321 C21.181492,11.8069006 21.2240559,11.9906251 21.2413097,12.1816567 L21.25,12.375 L21.25,13.125 C21.25,13.7118025 21.0121513,14.2430525 20.6276019,14.6276019 C20.4415236,14.8136802 20.2210958,14.9654091 19.9767196,15.0728469 C19.5619304,16.7927947 18.6894261,18.3176088 17.4711575,19.4206175 L17.238,19.622 L17.5642232,19.77544 C19.4699159,20.7061593 21.0954841,22.0378405 22.3360626,23.6507746 L22.5641339,23.9564665 C24.292848,26.3458636 25.2003646,29.3117587 24.9626122,32.5 L24.9626122,32.5 L-0.962533974,32.5 C-1.20373044,29.2748693 -0.266986007,26.2754527 1.46145818,23.8867308 C2.74791669,22.1088362 4.47342641,20.6696501 6.47873852,19.7276081 L6.692,19.63 L6.56908267,19.5178463 C5.41945383,18.4240028 4.61450504,17.0106878 4.3470003,15.4185349 L4.30318839,15.1179449 C4.00869319,15.0282685 3.76264941,14.8987789 3.56151072,14.7479249 C3.02150956,14.342924 2.75,13.7656599 2.75,13.125 L2.75,13.125 L2.75,12.375 C2.75,12.1140829 2.7970995,11.8641894 2.88316565,11.6332766 L2.939,11.5 L2,11.5 L2,7.25 L3.55822122,7.25 C3.73334017,5.75616367 4.29589502,4.38078344 5.14240823,3.22684965 C6.05665275,1.98058719 7.30265081,0.993105303 8.75001823,0.393736484 L8.75001823,0.393736484 L8.7499537,-1 L15.2491333,-1 Z" id="形状结合" stroke="#FFFFFF" stroke-width="2"></path>
            <rect id="矩形" fill="#F4BDB0" x="8.25" y="18.75" width="7.5" height="7.5"></rect>
            <g id="编组-2" transform="translate(0.000000, 19.500000)">
                <mask id="mask-3" fill="white">
                    <use xlink:href="#path-2"></use>
                </mask>
                <use id="形状结合" fill="#4F5853" xlink:href="#path-2"></use>
                <path d="M16.5,0.75 L19.5,0.75 L19.5,9 L19.5,9 L19.5,12 L4.5,12 L4.5,0.75 L7.5,0.75 L7.5,9 L16.5,9 L16.5,0.75 Z" id="形状结合" fill="#5DC7DA" mask="url(#mask-3)"></path>
                <rect id="矩形" fill="#37A7BB" mask="url(#mask-3)" x="4.5" y="6.75" width="3" height="2.25"></rect>
                <rect id="矩形" fill="#37A7BB" mask="url(#mask-3)" x="16.5" y="6.75" width="3" height="2.25"></rect>
                <g id="gongjudown" mask="url(#mask-3)" fill="#1C7E91" fill-rule="nonzero" stroke="#A1ECF9">
                    <g transform="translate(10.000000, 3.500000)" id="形状">
                        <path d="M7.87640786,0.500837737 C8.12308763,0.503411166 8.41908912,0.513168251 8.73798168,0.546403344 L8.73798168,0.546403344 L6.6733899,2.99332694 C6.69950187,3.07063275 6.73548953,3.92884034 6.83717091,4.11909891 C7.07136362,4.23054577 7.9155077,4.30243104 7.91300716,4.30211168 L7.91300716,4.30211168 L9.99040693,2.40151953 C10.1262281,2.67829737 10.227256,2.94604393 10.2851633,3.17767335 C10.5187568,4.11204707 10.4097942,5.89519493 9.60389867,6.70109044 C9.03195885,7.27303026 8.37494201,7.57589848 7.72531871,7.65585212 C7.16362823,7.72498325 6.60443204,7.62756843 6.10188893,7.38274301 C5.5310527,8.01761826 4.47000382,9.20684228 4.02792558,9.70255868 C3.06160333,10.465178 2.64257027,10.511993 2.25406102,10.4887042 C1.87941151,10.4662462 1.52145168,10.3439892 1.20310869,10.0869955 C0.718885347,9.6129663 0.546593455,9.12445789 0.52296303,8.67553456 C0.488567084,8.02209129 0.785110497,7.45117714 1.06171624,7.18227832 L1.06171624,7.18227832 L3.61752681,4.89550044 C3.38438177,4.40994381 3.29314223,3.87450435 3.34398423,3.34913709 C3.40744105,2.69341661 3.69192315,2.05306473 4.1989556,1.54603228 C5.19955653,0.545431355 6.85881152,0.5 7.70105884,0.5 Z" transform="translate(5.500000, 5.500000) rotate(-5.000000) translate(-5.500000, -5.500000) "></path>
                    </g>
                </g>
            </g>
            <rect id="矩形" fill="#FFD9C7" x="5.25" y="3.75" width="13.5" height="16.5" rx="6"></rect>
            <rect id="矩形" fill="#4B5650" x="4.5" y="9.75" width="1.5" height="3"></rect>
            <rect id="矩形" fill="#4B5650" x="18" y="9.75" width="1.5" height="3"></rect>
            <rect id="矩形" fill="#FFD9C7" x="3.75" y="11.25" width="2.25" height="3" rx="1.125"></rect>
            <rect id="矩形" fill="#FFCFB9" x="18" y="11.25" width="2.25" height="3" rx="1.125"></rect>
            <g id="编组" transform="translate(3.000000, 0.000000)">
                <rect id="矩形" fill="#5DC7DA" x="0" y="8.25" width="18" height="2.25"></rect>
                <path d="M9,0.75 C13.1421356,0.75 16.5,4.10786438 16.5,8.25 L16.5,8.25 L16.5,8.25 L1.5,8.25 C1.5,4.10786438 4.85786438,0.75 9,0.75 Z" id="矩形" fill="#5DC7DA"></path>
                <rect id="矩形" fill="#37A7BB" x="6.75" y="0" width="4.5" height="8.25"></rect>
            </g>
        </g>
    </g>
</svg>