<?xml version="1.0" encoding="UTF-8"?>
<svg width="36px" height="50px" viewBox="0 0 36 50" version="1.1" xmlns="http://www.w3.org/2000/svg" xmlns:xlink="http://www.w3.org/1999/xlink">
    <title>ic_gdry_off</title>
    <defs>
        <filter x="-36.0%" y="-240.0%" width="172.0%" height="580.0%" filterUnits="objectBoundingBox" id="filter-1">
            <feGaussianBlur stdDeviation="2.4" in="SourceGraphic"></feGaussianBlur>
        </filter>
        <path d="M14.25,0 L14.2509483,1.09364963 C17.2197026,2.02651721 19.3927621,4.75571708 19.4961464,8.00726894 L19.5,8.25 L21,8.25 L21,10.5 L19.5,10.5 L19.5010061,11.3143708 C19.9374276,11.4690931 20.25,11.885544 20.25,12.375 L20.25,13.125 C20.25,13.7463203 19.7463203,14.25 19.125,14.25 C18.9935157,14.25 18.8672997,14.2274435 18.7500106,14.1859891 L18.75,14.25 C18.75,16.4704495 17.543836,18.4091844 15.750963,19.4467496 L15.75,20.097 L16.0157703,20.1884093 C20.6683001,21.8401994 24,26.2810196 24,31.5 L0,31.5 C0,26.1818627 3.45950235,21.6717355 8.25083046,20.0972949 L8.25003939,19.4473296 C6.45661355,18.409907 5.25,16.4708633 5.25,14.25 L5.25100609,14.1856292 C5.13342979,14.227313 5.00686432,14.25 4.875,14.25 C4.25367966,14.25 3.75,13.7463203 3.75,13.125 L3.75,12.375 C3.75,11.885164 4.06305795,11.4684465 4.50001065,11.3140109 L4.5,10.5 L3,10.5 L3,8.25 L4.5,8.25 C4.5,4.89175004 6.70719426,2.04901792 9.75005062,1.09333581 L9.75,0 L14.25,0 Z" id="path-2"></path>
        <path d="M8.26594947,0.592337948 L12,6.19201425 L15.7350496,0.592664806 C20.5336994,2.16287782 24,6.67663997 24,12 L0,12 L0,12 C0,6.67627055 3.46678168,2.16225134 8.26594947,0.592337948 Z" id="path-4"></path>
    </defs>
    <g id="页面-1" stroke="none" stroke-width="1" fill="none" fill-rule="evenodd">
        <g id="编组-3" transform="translate(6.000000, 2.000000)">
            <ellipse id="椭圆形" fill="#9CAAAD" opacity="0.75" filter="url(#filter-1)" cx="12" cy="38.5" rx="10" ry="1.5"></ellipse>
            <mask id="mask-3" fill="white">
                <use xlink:href="#path-2"></use>
            </mask>
            <path stroke="#FFFFFF" stroke-width="2" d="M15.2491333,-1 L15.2503419,0.393884582 C16.6546511,0.975494457 17.8693776,1.9224669 18.7754111,3.11669643 C19.6473957,4.26604665 20.2337954,5.6440009 20.4287475,7.14485419 L20.4287475,7.14485419 L22,7.39846384 L22,11.5 L21.06,11.5 L21.1170409,11.6338321 C21.181492,11.8069006 21.2240559,11.9906251 21.2413097,12.1816567 L21.25,12.375 L21.25,13.125 C21.25,13.7118025 21.0121513,14.2430525 20.6276019,14.6276019 C20.4415236,14.8136802 20.2210958,14.9654091 19.9767196,15.0728469 C19.5619304,16.7927947 18.6894261,18.3176088 17.4711575,19.4206175 L17.238,19.622 L17.5642232,19.77544 C19.4699159,20.7061593 21.0954841,22.0378405 22.3360626,23.6507746 L22.5641339,23.9564665 C24.292848,26.3458636 25.2003646,29.3117587 24.9626122,32.5 L24.9626122,32.5 L-0.962533974,32.5 C-1.20373044,29.2748693 -0.266986007,26.2754527 1.46145818,23.8867308 C2.74791669,22.1088362 4.47342641,20.6696501 6.47873852,19.7276081 L6.692,19.63 L6.56908267,19.5178463 C5.41945383,18.4240028 4.61450504,17.0106878 4.3470003,15.4185349 L4.30318839,15.1179449 C4.00869319,15.0282685 3.76264941,14.8987789 3.56151072,14.7479249 C3.02150956,14.342924 2.75,13.7656599 2.75,13.125 L2.75,13.125 L2.75,12.375 C2.75,12.1140829 2.7970995,11.8641894 2.88316565,11.6332766 L2.939,11.5 L2,11.5 L2,7.25 L3.55822122,7.25 C3.73334017,5.75616367 4.29589502,4.38078344 5.14240823,3.22684965 C6.05665275,1.98058719 7.30265081,0.993105303 8.75001823,0.393736484 L8.75001823,0.393736484 L8.7499537,-1 L15.2491333,-1 Z"></path>
            <rect id="矩形" fill="#D5CFCC" mask="url(#mask-3)" x="8.25" y="18.75" width="7.5" height="7.5"></rect>
            <g id="编组-2" mask="url(#mask-3)">
                <g transform="translate(0.000000, 19.500000)">
                    <mask id="mask-5" fill="white">
                        <use xlink:href="#path-4"></use>
                    </mask>
                    <use id="形状结合" stroke="none" fill="#9CAAAD" fill-rule="evenodd" xlink:href="#path-4"></use>
                    <path d="M16.5,0.75 L19.5,0.75 L19.5,9 L19.5,9 L19.5,12 L4.5,12 L4.5,0.75 L7.5,0.75 L7.5,9 L16.5,9 L16.5,0.75 Z" id="形状结合" stroke="none" fill="#CBD6D7" fill-rule="evenodd" mask="url(#mask-5)"></path>
                    <rect id="矩形" stroke="none" fill="#B3C7C9" fill-rule="evenodd" mask="url(#mask-5)" x="4.5" y="6.75" width="3" height="2.25"></rect>
                    <rect id="矩形" stroke="none" fill="#B3C7C9" fill-rule="evenodd" mask="url(#mask-5)" x="16.5" y="6.75" width="3" height="2.25"></rect>
                </g>
            </g>
            <rect id="矩形" fill="#EEE9E6" mask="url(#mask-3)" x="5.25" y="3.75" width="13.5" height="16.5" rx="6"></rect>
            <rect id="矩形" fill="#768D91" mask="url(#mask-3)" x="4.5" y="9.75" width="1.5" height="3"></rect>
            <rect id="矩形" fill="#768D91" mask="url(#mask-3)" x="18" y="9.75" width="1.5" height="3"></rect>
            <rect id="矩形" fill="#EEE9E6" mask="url(#mask-3)" x="3.75" y="11.25" width="2.25" height="3" rx="1.125"></rect>
            <rect id="矩形" fill="#EEE9E6" mask="url(#mask-3)" x="18" y="11.25" width="2.25" height="3" rx="1.125"></rect>
            <path d="M18.6231168,23.5007223 C18.8097771,23.5023905 19.0228514,23.5075668 19.2526226,23.5222867 L19.4875996,23.5404113 L17.271957,26.166358 C17.2762251,26.273229 17.3272111,27.2954619 17.4479897,27.5080911 C17.6862616,27.6267094 18.5316342,27.7107026 18.6583017,27.7226699 L18.6742282,27.7241395 L20.9737642,25.6513882 C21.1055877,25.9303021 21.2043518,26.1987131 21.2629513,26.4331113 C21.5187568,27.4563329 21.4042412,29.4116237 20.5206037,30.2952612 C19.8949856,30.9208793 19.1765073,31.2527788 18.4657899,31.3402517 C17.8385061,31.4174559 17.214106,31.3043731 16.6556986,31.023385 C15.8529174,31.9158213 14.0996051,33.8829542 14.105201,33.8765522 C13.8506859,34.1734865 13.2392231,34.5 12.550647,34.5 C12.0544458,34.5 11.5293019,34.3387217 11.0952901,33.9047099 C10.6596082,33.469028 10.5,32.9544615 10.5,32.4665341 C10.5,31.8627144 10.7579915,31.3071284 11.0260222,30.9957246 L11.1064846,30.9098248 L13.9767225,28.3417172 C13.7086192,27.8016005 13.6028902,27.2027878 13.6597241,26.6155037 C13.7290394,25.8992465 14.0398492,25.1998158 14.5936788,24.6459862 C15.6363098,23.6033553 17.3298936,23.507705 18.2922379,23.5005248 L18.6231168,23.5007223 Z M13.0874281,31.9125719 C13.0069373,31.8320811 12.899095,31.7744273 12.4756979,31.9125719 C12.3952071,31.9930627 12.3375533,32.100905 12.3375533,32.218437 C12.3375533,32.335969 12.3952071,32.4438113 12.4756979,32.5243021 C12.5561887,32.6047929 12.664031,32.6624467 12.781563,32.6624467 C12.9078109,32.6624467 13.0170975,32.6157301 13.0949841,32.5378435 C13.1778955,32.4549321 13.2255727,32.3399113 13.2255727,32.218437 C13.2255727,32.100905 13.1679189,31.9930627 13.0874281,31.9125719 Z" id="形状" stroke="#E7E7E7" fill="#A3AFB0" fill-rule="nonzero" mask="url(#mask-3)" transform="translate(16.000000, 29.000000) rotate(-5.000000) translate(-16.000000, -29.000000) "></path>
            <g id="编组" mask="url(#mask-3)">
                <g transform="translate(3.000000, 0.000000)" id="矩形">
                    <rect fill="#CBD6D7" x="0" y="8.25" width="18" height="2.25"></rect>
                    <path d="M9,0.75 C13.1421356,0.75 16.5,4.10786438 16.5,8.25 L16.5,8.25 L16.5,8.25 L1.5,8.25 C1.5,4.10786438 4.85786438,0.75 9,0.75 Z" fill="#CBD6D7"></path>
                    <rect fill="#B3C7C9" x="6.75" y="0" width="4.5" height="8.25"></rect>
                </g>
            </g>
        </g>
    </g>
</svg>