<?xml version="1.0" encoding="UTF-8"?>
<svg width="60px" height="120px" viewBox="0 0 60 120" version="1.1" xmlns="http://www.w3.org/2000/svg" xmlns:xlink="http://www.w3.org/1999/xlink">
    <title>ic_map_abnormal</title>
    <defs>
        <linearGradient x1="39.2772082%" y1="-12.7410359%" x2="53.876985%" y2="100%" id="linearGradient-1">
            <stop stop-color="#24181A" offset="0%"></stop>
            <stop stop-color="#FF4771" offset="100%"></stop>
        </linearGradient>
        <linearGradient x1="50.0000533%" y1="-3.87880818%" x2="50%" y2="100%" id="linearGradient-2">
            <stop stop-color="#24181A" stop-opacity="0" offset="0%"></stop>
            <stop stop-color="#AF2035" stop-opacity="0.245875219" offset="38.9750874%"></stop>
            <stop stop-color="#FB2556" offset="100%"></stop>
        </linearGradient>
        <linearGradient x1="50%" y1="-197.895354%" x2="50%" y2="100%" id="linearGradient-3">
            <stop stop-color="#181D24" stop-opacity="0" offset="0%"></stop>
            <stop stop-color="#FF1A5E" offset="100%"></stop>
        </linearGradient>
        <linearGradient x1="50%" y1="0%" x2="50%" y2="100%" id="linearGradient-4">
            <stop stop-color="#FF718A" offset="0%"></stop>
            <stop stop-color="#B60034" offset="100%"></stop>
        </linearGradient>
        <path d="M39.5693118,38.6034194 C41.4071689,38.6034194 42.3648475,39.9277956 42.9848475,40.7857611 C43.6048475,41.6437265 43.8428832,41.8740528 44.3023475,41.8740528 C45.0269254,41.8740528 45.6143118,42.4850423 45.6143118,43.2387361 C45.6143118,43.9924299 45.0269254,44.6034194 44.3023475,44.6034194 C42.4644904,44.6034194 41.5068118,43.2790432 40.8868118,42.4210777 C40.2668117,41.5631123 40.028776,41.332786 39.5693118,41.332786 C39.1098475,41.332786 38.8939546,41.4997725 38.2518118,42.4210777 C37.6096689,43.3423829 36.6796689,44.6034194 34.8418118,44.6034194 C33.0039546,44.6034194 32.0462761,43.2790432 31.4262761,42.4210777 C30.806276,41.5631123 30.5682403,41.332786 30.108776,41.332786 C29.6493118,41.332786 29.4334189,41.4997725 28.791276,42.4210777 C28.1491332,43.3423829 27.2191332,44.6034194 25.3812761,44.6034194 C23.5434189,44.6034194 22.5968118,43.2790432 21.9712761,42.4210777 C21.3457404,41.5631123 21.1132403,41.332786 20.6537761,41.332786 C20.1943118,41.332786 19.9784189,41.4997725 19.3362761,42.4210777 C18.6941332,43.3423829 17.7641332,44.6034194 15.9262761,44.6034194 C15.2016982,44.6034194 14.6143118,43.9924299 14.6143118,43.2387361 C14.6143118,42.4850423 15.2016982,41.8740528 15.9262761,41.8740528 C16.3857404,41.8740528 16.6071689,41.7070663 17.2493118,40.7857611 C17.8914546,39.8644559 18.8214547,38.6034194 20.6593118,38.6034194 C22.4971689,38.6034194 23.4493117,39.9277956 24.0693118,40.7857611 C24.6893118,41.6437265 24.9273475,41.8740528 25.3868118,41.8740528 C25.846276,41.8740528 26.0621689,41.7070663 26.7043118,40.7857611 C27.3464546,39.8644559 28.2819903,38.6034194 30.1143118,38.6034194 C31.9466332,38.6034194 32.9043118,39.9277956 33.5243118,40.7857611 C34.1443118,41.6437265 34.3823475,41.8740528 34.8418118,41.8740528 C35.3012761,41.8740528 35.517169,41.7070663 36.1593118,40.7857611 C36.8014546,39.8644559 37.7314546,38.6034194 39.5693118,38.6034194 Z M35.0783406,14.6034194 C36.0566873,14.6125154 36.8458663,15.4102384 36.8488441,16.3930914 L36.8488441,16.3930914 L36.8488441,18.7756268 L39.926542,18.7756268 C40.8586715,18.7756268 41.6143118,19.5347185 41.6143118,20.4711056 L41.6143118,20.4711056 L41.6143118,37.1322315 C41.0151837,36.6811126 40.2835668,36.4432745 39.5349353,36.4562563 C37.7037602,36.4562563 36.7605948,37.7195541 36.1373334,38.5506712 C35.514072,39.3817882 35.2879329,39.6034194 34.8246235,39.6034194 C34.3613142,39.6034194 34.1572374,39.4427368 33.5119137,38.556212 C32.8665899,37.6696871 31.9344557,36.4562563 30.1087962,36.4562563 C28.2831367,36.4562563 27.32894,37.7306357 26.7111943,38.556212 C26.0934485,39.3817882 25.8562782,39.6034194 25.3984844,39.6034194 C24.9406907,39.6034194 24.7035204,39.3817882 24.0857746,38.556212 C23.4239041,37.6696871 22.5193477,36.4562563 20.6881727,36.4562563 C19.941358,36.4440874 19.2117438,36.6819052 18.6143118,37.1322315 L18.6143118,37.1322315 L18.6143118,20.4711056 C18.6143118,19.5347185 19.369952,18.7756268 20.3020816,18.7756268 L20.3020816,18.7756268 L23.3632326,18.7756268 L23.3632326,16.3930914 C23.3662722,15.4037872 24.1654723,14.6034194 25.150283,14.6034194 L25.150283,14.6034194 Z M26.9042398,22.3328077 L24.9682686,22.3328077 C24.8678335,22.3328077 24.77159,22.3732521 24.7010919,22.4451137 C24.6305938,22.5169753 24.5917317,22.6142386 24.5932087,22.7151215 L24.5932087,22.7151215 L24.5932087,35.708251 C24.5917317,35.8091339 24.6305938,35.9063972 24.7010919,35.9782588 C24.77159,36.0501204 24.8678335,36.0905648 24.9682686,36.0905648 L24.9682686,36.0905648 L26.9042398,36.0905648 C27.0051748,36.0905648 27.1019756,36.0502854 27.1733474,35.9785877 C27.2447191,35.9068899 27.2848154,35.8096469 27.2848154,35.708251 L27.2848154,35.708251 L27.2848154,22.7151215 C27.2848154,22.6137256 27.2447191,22.5164826 27.1733474,22.4447848 C27.1019756,22.3730871 27.0051748,22.3328077 26.9042398,22.3328077 L26.9042398,22.3328077 Z M35.2603549,22.3328077 L33.3243837,22.3328077 C33.2234488,22.3328077 33.1266479,22.3730871 33.0552762,22.4447848 C32.9839044,22.5164826 32.9438082,22.6137256 32.9438082,22.7151215 L32.9438082,22.7151215 L32.9438082,35.708251 C32.9438082,35.8096469 32.9839044,35.9068899 33.0552762,35.9785877 C33.1266479,36.0502854 33.2234488,36.0905648 33.3243837,36.0905648 L33.3243837,36.0905648 L35.2603549,36.0905648 C35.3607901,36.0905648 35.4570335,36.0501204 35.5275316,35.9782588 C35.5980297,35.9063972 35.6368919,35.8091339 35.6354149,35.708251 L35.6354149,35.708251 L35.6354149,22.7151215 C35.6368919,22.6142386 35.5980297,22.5169753 35.5275316,22.4451137 C35.4570335,22.3732521 35.3607901,22.3328077 35.2603549,22.3328077 L35.2603549,22.3328077 Z" id="path-5"></path>
        <filter x="-32.3%" y="-26.7%" width="164.5%" height="166.7%" filterUnits="objectBoundingBox" id="filter-6">
            <feOffset dx="0" dy="2" in="SourceAlpha" result="shadowOffsetOuter1"></feOffset>
            <feGaussianBlur stdDeviation="3" in="shadowOffsetOuter1" result="shadowBlurOuter1"></feGaussianBlur>
            <feColorMatrix values="0 0 0 0 0.0763771335   0 0 0 0 0.155136944   0 0 0 0 0.204879982  0 0 0 1 0" type="matrix" in="shadowBlurOuter1"></feColorMatrix>
        </filter>
        <filter x="-24.2%" y="-18.3%" width="148.4%" height="150.0%" filterUnits="objectBoundingBox" id="filter-7">
            <feGaussianBlur stdDeviation="0.5" in="SourceAlpha" result="shadowBlurInner1"></feGaussianBlur>
            <feOffset dx="0" dy="-2" in="shadowBlurInner1" result="shadowOffsetInner1"></feOffset>
            <feComposite in="shadowOffsetInner1" in2="SourceAlpha" operator="arithmetic" k2="-1" k3="1" result="shadowInnerInner1"></feComposite>
            <feColorMatrix values="0 0 0 0 1   0 0 0 0 0.27183689   0 0 0 0 0.445483742  0 0 0 1 0" type="matrix" in="shadowInnerInner1"></feColorMatrix>
        </filter>
        <linearGradient x1="39.2772082%" y1="-12.7410359%" x2="53.876985%" y2="100%" id="linearGradient-8">
            <stop stop-color="#24181A" offset="0%"></stop>
            <stop stop-color="#FF476A" offset="100%"></stop>
        </linearGradient>
        <linearGradient x1="39.2772082%" y1="-12.7410359%" x2="53.876985%" y2="100%" id="linearGradient-9">
            <stop stop-color="#181C24" offset="0%"></stop>
            <stop stop-color="#FF1156" offset="100%"></stop>
        </linearGradient>
        <linearGradient x1="50%" y1="-13.7390358%" x2="50%" y2="100%" id="linearGradient-10">
            <stop stop-color="#24181A" stop-opacity="0" offset="0%"></stop>
            <stop stop-color="#FB2562" offset="100%"></stop>
        </linearGradient>
        <linearGradient x1="50.0000533%" y1="-3.87880818%" x2="50%" y2="100%" id="linearGradient-11">
            <stop stop-color="#24181A" stop-opacity="0" offset="0%"></stop>
            <stop stop-color="#AF2042" stop-opacity="0.245875219" offset="37.8478025%"></stop>
            <stop stop-color="#FB255D" offset="100%"></stop>
        </linearGradient>
    </defs>
    <g id="页面-1" stroke="none" stroke-width="1" fill="none" fill-rule="evenodd">
        <g id="ic_map_abnormal">
            <g id="编组-22">
                <g id="编组-24">
                    <path d="M30,0.866025404 L55.2307621,15.4330127 L55.2307621,44.5669873 L30,59.1339746 L4.76923789,44.5669873 L4.76923789,15.4330127 L30,0.866025404 Z" id="多边形备份" stroke="url(#linearGradient-1)" stroke-width="1.5"></path>
                    <polygon id="多边形备份" fill="url(#linearGradient-2)" points="30 4.61538462 51.9837218 17.3076923 51.9837218 42.6923077 30 55.3846154 8.01627821 42.6923077 8.01627821 17.3076923"></polygon>
                </g>
                <polygon id="多边形备份" fill="url(#linearGradient-3)" points="51.9837218 42.6923077 30 55.3846154 8.01627821 42.6923077"></polygon>
                <g id="形状结合" fill-rule="nonzero">
                    <use fill="black" fill-opacity="1" filter="url(#filter-6)" xlink:href="#path-5"></use>
                    <use fill="url(#linearGradient-4)" xlink:href="#path-5"></use>
                    <use fill="black" fill-opacity="1" filter="url(#filter-7)" xlink:href="#path-5"></use>
                </g>
            </g>
            <path d="M30,90.8660254 L37.910254,95.4330127 L37.910254,104.566987 L30,109.133975 L22.089746,104.566987 L22.089746,95.4330127 L30,90.8660254 Z" id="多边形备份" stroke="url(#linearGradient-8)" stroke-width="1.5"></path>
            <path d="M30,81 L46.4544827,90.5 L46.4544827,109.5 L30,119 L13.5455173,109.5 L13.5455173,90.5 L30,81 Z" id="多边形备份" stroke="url(#linearGradient-9)" stroke-width="0.5" stroke-linecap="round" stroke-linejoin="round" stroke-dasharray="2"></path>
            <path d="M30,93 L36.0621778,96.5 L36.0621778,103.5 L30,107 L23.9378222,103.5 L23.9378222,96.5 L30,93 Z M30,96 L26.5358984,98 L26.5358984,102 L30,104 L33.4641016,102 L33.4641016,98 L30,96 Z" id="形状结合" fill="#FF81A8"></path>
            <polygon id="路径-2" fill="url(#linearGradient-10)" points="4.61538462 44.6034194 18.7416698 106.5 30 113 41.2583302 106.5 55.3846154 44.6034194"></polygon>
            <polygon id="路径-2" fill="url(#linearGradient-11)" opacity="0.5" points="11 44.6034194 21.5733104 105.5 30 110 38.4266896 105.5 49 44.6034194"></polygon>
        </g>
    </g>
</svg>