<?xml version="1.0" encoding="UTF-8"?>
<svg width="40px" height="42px" viewBox="0 0 40 42" version="1.1" xmlns="http://www.w3.org/2000/svg" xmlns:xlink="http://www.w3.org/1999/xlink">
    <title>ic_qfdyh</title>
    <defs>
        <filter x="-33.3%" y="-150.0%" width="166.7%" height="400.0%" filterUnits="objectBoundingBox" id="filter-1">
            <feGaussianBlur stdDeviation="2" in="SourceGraphic"></feGaussianBlur>
        </filter>
        <path d="M20,3 C26.0751322,3 31,7.92486775 31,14 C31,18.9932093 27.6730778,23.2093744 23.1150024,24.552726 L20,29 L16.885998,24.5530208 C12.327409,23.2099912 9,18.9935746 9,14 C9,7.92486775 13.9248678,3 20,3 Z" id="path-2"></path>
        <rect id="path-4" x="0" y="0" width="50" height="50"></rect>
    </defs>
    <g id="页面-1" stroke="none" stroke-width="1" fill="none" fill-rule="evenodd">
        <g id="ic_map_location">
            <ellipse id="椭圆形" fill="#44B1C4" opacity="0.7" filter="url(#filter-1)" cx="20" cy="34" rx="9" ry="2"></ellipse>
            <mask id="mask-3" fill="white">
                <use xlink:href="#path-2"></use>
            </mask>
            <path stroke="#FFFFFF" stroke-width="2" d="M20,2 C23.3137085,2 26.3137085,3.34314575 28.4852814,5.51471863 C30.6568542,7.6862915 32,10.6862915 32,14 C32,16.6908629 31.1141193,19.1747486 29.6185418,21.1763243 C28.156011,23.1336726 26.1097895,24.6291773 23.7382428,25.4060046 L23.7382428,25.4060046 L19.9998956,30.743225 L16.2627226,25.4063208 C13.8909506,24.6296436 11.8445064,23.1341713 10.3818001,21.1767818 C8.88601566,19.1751272 8,16.6910679 8,14 C8,10.6862915 9.34314575,7.6862915 11.5147186,5.51471863 C13.6862915,3.34314575 16.6862915,2 20,2 Z"></path>
            <g id="Colors/主题色" mask="url(#mask-3)">
                <g transform="translate(-5.000000, -5.000000)">
                    <mask id="mask-5" fill="white">
                        <use xlink:href="#path-4"></use>
                    </mask>
                    <use id="Black" stroke="none" fill="#44B1C4" fill-rule="evenodd" xlink:href="#path-4"></use>
                    <g id="qianfei" stroke="none" stroke-width="1" fill="none" fill-rule="evenodd" mask="url(#mask-5)">
                        <g transform="translate(19.000000, 12.000000)" fill="#FFFFFF" fill-rule="nonzero" id="形状">
                            <path d="M0,9.39472121 C0,10.2236555 2.48719907,11.6050808 5.52649297,11.6050808 C5.98710006,11.6050808 6.4473111,11.513197 6.90791819,11.513197 C7.18436165,12.4340151 7.73685253,13.1710657 8.47390308,13.7235565 C7.64496874,14 6.63187077,14.1841636 5.52649297,14.1841636 C2.48680302,14.1841636 0,12.986902 0,11.4209171 L0,9.39472121 Z M10.8684263,7.27624544 C12.5262949,7.27624544 14,8.65806671 14,10.4078192 C14,12.1579677 12.6185748,13.5393929 10.8684263,13.5393929 C9.1186738,13.5393929 7.73685253,12.1579677 7.73685253,10.4078192 C7.73685253,8.65806671 9.1186738,7.27624544 10.8684263,7.27624544 L10.8684263,7.27624544 Z M12.4344112,9.8553283 L9.21055758,9.8553283 C8.84223033,9.8553283 8.65806671,10.1313757 8.65806671,10.4078192 C8.65806671,10.7761464 8.93411412,10.9603101 9.21055758,10.9603101 L12.4344112,10.9603101 C12.7104586,10.9603101 12.986902,10.6842626 12.986902,10.4078192 C12.986902,10.0394919 12.7104586,9.8553283 12.4344112,9.8553283 Z M0,5.52649297 C0,6.63147472 2.48719907,7.73645648 5.52649297,7.73645648 C6.4473111,7.73645648 7.27624544,7.64457269 7.92101615,7.46040906 C7.18436165,8.10517978 6.8160344,9.11827774 6.72375456,10.1313757 C6.35542731,10.2236555 5.98710006,10.2236555 5.52649297,10.2236555 C2.48680302,10.2236555 0,8.93411412 0,7.64457269 L0,5.52649297 Z M5.52649297,2.04281037e-14 C8.56578687,2.04281037e-14 11.0525899,1.19726159 11.0525899,2.76324649 L11.0525899,3.68406461 C11.0525899,5.25004951 8.56578687,6.4473111 5.52649297,6.4473111 C2.48680302,6.4473111 8.8817842e-16,5.25004951 8.8817842e-16,3.68406461 L8.8817842e-16,2.76324649 C8.8817842e-16,1.19726159 2.48719907,2.04281037e-14 5.52649297,2.04281037e-14 Z M11.1448697,5.25004951 L11.1448697,6.35503126 L10.5919828,6.35503126 C10.9603101,5.98670401 11.1444737,5.61837676 11.1444737,5.25004951 L11.1448697,5.25004951 Z"></path>
                        </g>
                    </g>
                </g>
            </g>
        </g>
    </g>
</svg>