<?xml version="1.0" encoding="UTF-8"?>
<svg width="40px" height="42px" viewBox="0 0 40 42" version="1.1" xmlns="http://www.w3.org/2000/svg" xmlns:xlink="http://www.w3.org/1999/xlink">
    <title>ic_slbddyh</title>
    <defs>
        <filter x="-33.3%" y="-150.0%" width="166.7%" height="400.0%" filterUnits="objectBoundingBox" id="filter-1">
            <feGaussianBlur stdDeviation="2" in="SourceGraphic"></feGaussianBlur>
        </filter>
        <path d="M20,3 C26.0751322,3 31,7.92486775 31,14 C31,18.9932093 27.6730778,23.2093744 23.1150024,24.552726 L20,29 L16.885998,24.5530208 C12.327409,23.2099912 9,18.9935746 9,14 C9,7.92486775 13.9248678,3 20,3 Z" id="path-2"></path>
        <rect id="path-4" x="0" y="0" width="50" height="50"></rect>
    </defs>
    <g id="页面-1" stroke="none" stroke-width="1" fill="none" fill-rule="evenodd">
        <g id="ic_map_location">
            <ellipse id="椭圆形" fill="#9A69FF" opacity="0.7" filter="url(#filter-1)" cx="20" cy="34" rx="9" ry="2"></ellipse>
            <mask id="mask-3" fill="white">
                <use xlink:href="#path-2"></use>
            </mask>
            <path stroke="#FFFFFF" stroke-width="2" d="M20,2 C23.3137085,2 26.3137085,3.34314575 28.4852814,5.51471863 C30.6568542,7.6862915 32,10.6862915 32,14 C32,16.6908629 31.1141193,19.1747486 29.6185418,21.1763243 C28.156011,23.1336726 26.1097895,24.6291773 23.7382428,25.4060046 L23.7382428,25.4060046 L19.9998956,30.743225 L16.2627226,25.4063208 C13.8909506,24.6296436 11.8445064,23.1341713 10.3818001,21.1767818 C8.88601566,19.1751272 8,16.6910679 8,14 C8,10.6862915 9.34314575,7.6862915 11.5147186,5.51471863 C13.6862915,3.34314575 16.6862915,2 20,2 Z"></path>
            <g id="Colors/主题色" mask="url(#mask-3)">
                <g transform="translate(-5.000000, -5.000000)">
                    <mask id="mask-5" fill="white">
                        <use xlink:href="#path-4"></use>
                    </mask>
                    <use id="Black" stroke="none" fill="#9A69FF" fill-rule="evenodd" xlink:href="#path-4"></use>
                    <g id="shuiliang" stroke="none" stroke-width="1" fill="none" fill-rule="evenodd" mask="url(#mask-5)">
                        <g transform="translate(19.000000, 10.000000)" fill="#FFFFFF" fill-rule="nonzero">
                            <path d="M11.0329621,6.30189714 C10.6501633,5.64485438 10.1988035,4.93639087 9.69030954,4.19936029 C9.08468751,3.32235102 8.43907157,2.4539119 7.77345867,1.62832338 C7.54492206,1.3426526 7.33066899,1.0798355 7.13926957,0.851298893 L6.49936705,0.0914146401 C6.4455229,0.0355511881 6.37127223,0.00399197816 6.2936841,0.00399197816 C6.21609597,0.00399197816 6.1418453,0.0355511881 6.08800115,0.0914146401 L5.62521451,0.628475695 C5.33954373,0.95414037 5.07958334,1.28551845 4.81676623,1.61975325 C4.15115334,2.45105519 3.5055374,3.31949433 2.89705867,4.19079016 C2.385708,4.93067746 1.93434817,5.63914096 1.55440606,6.29618372 C0.514564465,8.10447968 0.00892720591,9.51569328 0.00892720591,10.612669 C0.00892720591,14.2121207 2.82849768,17.1402461 6.2936841,17.1402461 C9.75887052,17.1402461 12.578441,14.2121207 12.578441,10.612669 C12.578441,9.51569328 12.0728037,8.10447969 11.0329621,6.30189714 Z M6.2936841,15.5147794 C3.72264719,15.5147794 1.60868352,13.3151145 1.60868352,10.612669 C1.60868352,9.83278783 2.06575675,8.6272572 2.93419587,7.12462895 C3.29128433,6.50472338 3.71979048,5.83339709 4.2054308,5.12493357 C4.77677232,4.26792127 5.41667486,3.43947605 6.05943407,2.63674118 L6.2936841,2.35107042 L6.53079083,2.63674118 C7.17355006,3.44804616 7.79631233,4.28506152 8.38193741,5.14207382 C8.86757771,5.84482391 9.29608386,6.51615022 9.65317233,7.1417692 C10.5101846,8.64439744 10.9786847,9.84992808 10.9786847,10.6298093 C10.9786847,13.3151145 8.87900454,15.5147794 6.2936841,15.5147794 L6.2936841,15.5147794 Z" id="形状"></path>
                            <path d="M6.2936841,10.8212087 C4.41111375,9.72994634 2.37142447,8.61011693 2.37142447,10.8212087 C2.35081278,13.008435 4.1064711,14.7986183 6.2936841,14.8205994 C8.4808971,14.7986183 10.2365554,13.008435 10.2159437,10.8212087 C10.2159437,8.61011693 8.18482458,11.9153277 6.2936841,10.8212087 L6.2936841,10.8212087 Z" id="路径"></path>
                        </g>
                    </g>
                </g>
            </g>
        </g>
    </g>
</svg>