<?xml version="1.0" encoding="UTF-8"?>
<svg width="40px" height="42px" viewBox="0 0 40 42" version="1.1" xmlns="http://www.w3.org/2000/svg" xmlns:xlink="http://www.w3.org/1999/xlink">
    <title>ic_yyt</title>
    <defs>
        <filter x="-33.3%" y="-150.0%" width="166.7%" height="400.0%" filterUnits="objectBoundingBox" id="filter-1">
            <feGaussianBlur stdDeviation="2" in="SourceGraphic"></feGaussianBlur>
        </filter>
        <path d="M20,3 C26.0751322,3 31,7.92486775 31,14 C31,18.9932093 27.6730778,23.2093744 23.1150024,24.552726 L20,29 L16.885998,24.5530208 C12.327409,23.2099912 9,18.9935746 9,14 C9,7.92486775 13.9248678,3 20,3 Z" id="path-2"></path>
        <rect id="path-4" x="0" y="0" width="50" height="50"></rect>
    </defs>
    <g id="页面-1" stroke="none" stroke-width="1" fill="none" fill-rule="evenodd">
        <g id="ic_map_location">
            <ellipse id="椭圆形" fill="#76C444" opacity="0.7" filter="url(#filter-1)" cx="20" cy="34" rx="9" ry="2"></ellipse>
            <mask id="mask-3" fill="white">
                <use xlink:href="#path-2"></use>
            </mask>
            <path stroke="#FFFFFF" stroke-width="2" d="M20,2 C23.3137085,2 26.3137085,3.34314575 28.4852814,5.51471863 C30.6568542,7.6862915 32,10.6862915 32,14 C32,16.6908629 31.1141193,19.1747486 29.6185418,21.1763243 C28.156011,23.1336726 26.1097895,24.6291773 23.7382428,25.4060046 L23.7382428,25.4060046 L19.9998956,30.743225 L16.2627226,25.4063208 C13.8909506,24.6296436 11.8445064,23.1341713 10.3818001,21.1767818 C8.88601566,19.1751272 8,16.6910679 8,14 C8,10.6862915 9.34314575,7.6862915 11.5147186,5.51471863 C13.6862915,3.34314575 16.6862915,2 20,2 Z"></path>
            <g id="Colors/主题色" mask="url(#mask-3)">
                <g transform="translate(-5.000000, -5.000000)">
                    <mask id="mask-5" fill="white">
                        <use xlink:href="#path-4"></use>
                    </mask>
                    <use id="Black" stroke="none" fill="#76C444" fill-rule="evenodd" xlink:href="#path-4"></use>
                    <g id="byingyesuo" stroke="none" stroke-width="1" fill="none" fill-rule="evenodd" mask="url(#mask-5)">
                        <g transform="translate(18.000000, 14.000000)" fill="#FFFFFF" fill-rule="nonzero" id="形状结合">
                            <path d="M13.0294692,8.32223179e-13 C13.1440113,0.0147315287 13.2500956,0.0408670061 13.3490915,0.0833804762 C13.4755401,0.137228557 13.5880197,0.210366301 13.683792,0.300384628 C13.7827705,0.394094501 13.8622168,0.509971004 13.9179193,0.645067833 C13.9722527,0.777876948 14,0.913511036 14,1.04839988 L14,1.04839988 L14,5.09738781 C14,5.38985207 13.8946608,5.64276649 13.6874835,5.84942391 C13.4808088,6.05634128 13.227981,6.16114315 12.9362966,6.16114315 L12.9362966,6.16117782 L12.8814087,6.16117782 L12.8685489,10.761697 L13.5091453,10.761697 C13.6306198,10.761697 13.7383333,10.8045224 13.8189928,10.8846793 C13.8991496,10.9648362 13.9419231,11.1038152 13.9416804,11.2260349 C13.9416805,11.3005591 13.9259437,11.3865393 13.8942103,11.449001 C13.8585773,11.5197644 13.8035333,11.5763161 13.7290091,11.6176511 C13.6598922,11.6555198 13.5858532,11.6751907 13.5086254,11.6751907 L13.5086254,11.6751907 L0.432552477,11.6751907 C0.310072792,11.6751907 0.202844552,11.6324 0.122670356,11.5517405 C0.0427907713,11.4720515 5.39301936e-11,11.3514263 5.39301936e-11,11.2333834 C5.39301936e-11,11.1158084 0.042305507,10.9788225 0.122930315,10.8986656 C0.203104527,10.8184741 0.310350076,10.7761859 0.432812452,10.7761859 L0.432812452,10.7761859 L1.15626939,10.7761859 L1.15626939,6.16116049 L1.11597431,6.16116049 C0.824307286,6.16116047 0.571219535,6.05635862 0.364787428,5.84966654 C0.157852714,5.6429918 0.0530855154,5.38983473 0.0530855154,5.09764777 L0.0530855154,5.09764777 L0.0530855154,1.04836523 C0.0530855154,0.863129194 0.102184858,0.686264135 0.200123552,0.522068197 C0.296970384,0.358946795 0.426295918,0.230141212 0.584096637,0.138580394 C0.743266519,0.0464476644 0.922505938,8.32223179e-13 1.11595697,8.32223179e-13 L1.11595697,8.32223179e-13 L13.0294692,8.32223179e-13 Z M9.33084919,7.02732265 L7.40077569,7.02732265 L7.40077569,10.7850595 L8.19364414,10.7850595 L8.19364414,10.7860127 L8.205,10.786 L8.20538584,7.63339548 L9.02276063,7.63339548 C9.14602022,7.63339548 9.20184406,7.65394009 9.224184,7.66727648 C9.25187928,7.68223295 9.27184485,7.70749696 9.28746027,7.74677824 C9.29839628,7.77457802 9.31690602,7.84356095 9.31692335,7.99016728 L9.31692335,7.99016728 L9.316,10.785 L10.1123657,10.7850595 L10.1123657,7.69894191 C10.1042547,7.54942552 10.0767154,7.43287308 10.02824,7.34013375 C9.96576092,7.22332136 9.87406146,7.13898766 9.75551595,7.09028695 C9.65372973,7.04798146 9.51480271,7.02732265 9.33084919,7.02732265 L9.33084919,7.02732265 Z M6.56133826,7.02782524 L4.65457526,7.02782524 C4.58006837,7.02782524 4.51122878,7.03347522 4.44926968,7.04451521 C4.39860301,7.05322309 4.34809215,7.06281449 4.29776019,7.07328504 C4.23283746,7.08678604 4.17554046,7.10747951 4.12711704,7.13479351 C4.07949202,7.16181601 4.03579742,7.19524153 3.99725425,7.23413603 C3.95073726,7.28034107 3.91558956,7.33496906 3.89220975,7.39694548 C3.8745319,7.44391306 3.860043,7.49923432 3.84895102,7.56025752 C3.83789371,7.62169669 3.83198377,7.69180145 3.83198377,7.76679362 L3.83198377,7.76679362 L3.83198377,10.7850422 L4.60493866,10.7850422 L4.60497331,8.11319263 C4.60497332,8.07294954 4.60788496,8.03736857 4.61324031,8.00721225 C4.61871698,7.97738523 4.62512953,7.95178703 4.63282459,7.93171747 C4.63598037,7.92241866 4.64132389,7.91401406 4.64840534,7.90721113 C4.65971935,7.89554344 4.67260496,7.88551028 4.68668999,7.87740144 C4.69476635,7.87313796 4.7099485,7.86615347 4.73544271,7.86081546 C4.76897862,7.85403897 4.80398767,7.84717581 4.84083384,7.84074592 C4.87161406,7.83539057 4.907559,7.83244427 4.94768077,7.83246159 L4.94768077,7.83246159 L5.78002974,7.83246159 L5.78002974,10.7850422 L6.56133826,10.7850422 L6.56133826,7.02782524 Z M11.1764157,2.18246798 L9.27625585,2.18246798 L9.27625585,4.04290466 L11.1764157,4.04290466 L11.1764157,2.18246798 Z M7.98178736,2.18246798 L6.08114228,2.18246798 L6.08114228,4.04290466 L7.98178736,4.04290466 L7.98178736,2.18246798 Z M4.58504241,2.18246798 L2.68436266,2.18246798 L2.68436266,4.04290466 L4.58504241,4.04290466 L4.58504241,2.18246798 Z"></path>
                        </g>
                    </g>
                </g>
            </g>
        </g>
    </g>
</svg>